<svg width="200" height="200" viewBox="0 0 200 200" fill="none" xmlns="http://www.w3.org/2000/svg">
<g clip-path="url(#clip0_108_7799)">
<path d="M97.8066 35.0336L91.9015 38.4429C87.7092 40.8809 85.1336 45.3681 85.1443 50.2176L111.383 35.0689C107.188 32.6348 102.014 32.6219 97.8066 35.0336ZM129.155 48.4252L180.288 136.99C182.096 140.122 182.587 143.845 181.65 147.338C180.714 150.831 178.429 153.809 175.297 155.617L116.253 189.706C113.121 191.514 109.4 192.004 105.906 191.068C102.415 190.133 99.4347 187.847 97.6264 184.715L46.4932 96.1498C45.5891 94.5837 45.3447 92.7227 45.8128 90.9758C46.2808 89.2289 47.4238 87.7408 48.9899 86.8366L119.843 45.9297C121.409 45.0255 123.269 44.7797 125.016 45.2478C126.761 45.7167 128.25 46.8591 129.155 48.4252ZM155.757 135.407C154.853 133.841 153.364 132.699 151.617 132.231C149.871 131.764 148.01 132.009 146.444 132.913L111.017 153.366C108.908 154.584 107.609 156.834 107.609 159.27C107.608 161.706 108.909 163.957 111.018 165.175C113.127 166.393 115.725 166.393 117.835 165.175L153.261 144.722C154.827 143.817 155.969 142.328 156.438 140.581C156.906 138.834 156.661 136.973 155.757 135.407ZM145.531 117.695C144.627 116.129 143.137 114.987 141.39 114.519C139.644 114.05 137.783 114.295 136.216 115.199L100.79 135.652C98.6805 136.87 97.3827 139.122 97.3824 141.558C97.3824 143.993 98.6815 146.243 100.791 147.461C102.9 148.679 105.498 148.679 107.608 147.461L143.034 127.008C144.6 126.104 145.743 124.616 146.211 122.869C146.679 121.122 146.435 119.261 145.531 117.695ZM125.078 82.2684C123.269 79.1363 120.29 76.8523 116.798 75.915C113.304 74.9789 109.583 75.469 106.451 77.2773L82.833 90.9131C79.7009 92.7213 77.416 95.6988 76.4796 99.1928C75.5432 102.687 76.0335 106.408 77.8419 109.54L84.6597 121.349C86.4679 124.481 89.4454 126.766 92.9394 127.702C96.4334 128.638 100.154 128.148 103.287 126.34L126.904 112.704C130.036 110.896 132.321 107.918 133.258 104.424C134.192 100.931 133.704 97.2093 131.895 94.0771L125.078 82.2684ZM51.2398 22.5576C49.4315 19.4256 46.454 17.1407 42.96 16.2043C39.4677 15.2673 35.7451 15.7582 32.6129 17.5666L26.7093 20.975C23.5773 22.7833 21.2924 25.7608 20.3559 29.2548C19.4195 32.7487 19.9099 36.4697 21.7182 39.6019L42.1717 75.0284L71.6931 57.9842L51.2398 22.5576ZM89.6511 102.722L96.4689 114.531L120.087 100.895L113.269 89.0861L89.6511 102.722Z" fill="black" stroke="black" stroke-width="0.433038"/>
</g>
<defs>
<clipPath id="clip0_108_7799">
<rect width="200" height="200" fill="white"/>
</clipPath>
</defs>
</svg>
