<svg width="200" height="200" viewBox="0 0 200 200" fill="none" xmlns="http://www.w3.org/2000/svg">
<g clip-path="url(#clip0_108_7799)">
<path d="M97.8303 41.4172L92.5036 44.4926C88.7219 46.6918 86.3986 50.7395 86.4082 55.1141L110.077 41.449C106.293 39.2534 101.626 39.2418 97.8303 41.4172ZM126.108 53.4972L172.233 133.388C173.864 136.213 174.307 139.571 173.462 142.722C172.617 145.873 170.556 148.559 167.731 150.191L114.47 180.941C111.645 182.572 108.288 183.014 105.136 182.169C101.987 181.325 99.299 179.264 97.6677 176.438L51.5427 96.5475C50.7271 95.1348 50.5067 93.4561 50.9289 91.8802C51.3512 90.3044 52.3822 88.9621 53.7949 88.1465L117.708 51.2461C119.121 50.4305 120.799 50.2088 122.375 50.631C123.949 51.054 125.292 52.0845 126.108 53.4972ZM150.105 131.96C149.29 130.547 147.946 129.517 146.37 129.095C144.795 128.674 143.116 128.894 141.704 129.71L109.747 148.16C107.844 149.259 106.673 151.288 106.672 153.485C106.672 155.683 107.845 157.714 109.748 158.812C111.65 159.911 113.994 159.911 115.897 158.812L147.854 140.362C149.266 139.546 150.296 138.203 150.719 136.627C151.141 135.051 150.921 133.373 150.105 131.96ZM140.88 115.982C140.065 114.57 138.721 113.539 137.145 113.117C135.57 112.695 133.891 112.915 132.478 113.731L100.522 132.181C98.6186 133.28 97.4479 135.311 97.4477 137.508C97.4476 139.705 98.6195 141.735 100.522 142.833C102.425 143.932 104.769 143.932 106.672 142.833L138.628 124.383C140.041 123.568 141.072 122.225 141.494 120.649C141.916 119.074 141.696 117.395 140.88 115.982ZM122.43 84.0257C120.799 81.2004 118.112 79.1401 114.962 78.2946C111.81 77.4501 108.453 77.8922 105.628 79.5235L84.3232 91.8237C81.498 93.4548 79.4369 96.1407 78.5922 99.2924C77.7474 102.444 78.1898 105.801 79.821 108.626L85.971 119.278C87.6022 122.104 90.2881 124.165 93.4398 125.009C96.5916 125.854 99.9481 125.412 102.774 123.78L124.078 111.48C126.903 109.849 128.964 107.163 129.809 104.011C130.652 100.861 130.212 97.5032 128.58 94.6778L122.43 84.0257ZM55.8244 30.1632C54.1932 27.3379 51.5074 25.2768 48.3556 24.4321C45.2053 23.5869 41.8473 24.0297 39.0219 25.661L33.6965 28.7356C30.8712 30.3668 28.8101 33.0526 27.9654 36.2044C27.1207 39.3562 27.5631 42.7127 29.1943 45.5381L47.6445 77.4948L74.2744 62.12L55.8244 30.1632ZM90.4736 102.476L96.6236 113.128L117.928 100.828L111.778 90.1757L90.4736 102.476Z" fill="black" stroke="black" stroke-width="0.390625"/>
</g>
<defs>
<clipPath id="clip0_108_7799">
<rect width="200" height="200" fill="white"/>
</clipPath>
</defs>
</svg>
